<svg xmlns="http://www.w3.org/2000/svg" enable-background="new 0 0 32 32" viewBox="0 0 32 32"><path d="M31.45295,25.86007L28.13306,4.94704c-0.29542-1.85795-1.87504-3.20661-3.75594-3.20661H7.62288c-1.8809,0-3.46052,1.34866-3.75594,3.20661L0.54705,25.86055c-0.17432,1.10061,0.14063,2.21831,0.86428,3.06549c0.72365,0.84767,1.77787,1.33352,2.89215,1.33352h23.39306c1.11428,0,2.1685-0.48585,2.89215-1.33352C31.31232,28.07886,31.62727,26.96116,31.45295,25.86007z M28.30738,26.97776c-0.08985,0.10547-0.28858,0.28174-0.61085,0.28174H4.30347c-0.32227,0-0.52101-0.17627-0.61085-0.28174C3.60277,26.87278,3.4597,26.64865,3.51,26.33078L6.82989,5.41775c0.0625-0.39259,0.396-0.67726,0.79298-0.67726h16.75425c0.39698,0,0.73048,0.28467,0.79298,0.67726L28.49,26.33029C28.5403,26.64865,28.39723,26.87278,28.30738,26.97776z"/><path d="M21.27452,6.41875c-0.82863,0-1.50003,0.6714-1.50003,1.50003v4.16415c0,2.0811-1.6934,3.774-3.77449,3.774s-3.77449-1.69291-3.77449-3.774V7.91878c0-0.82863-0.6714-1.50003-1.50003-1.50003s-1.50003,0.6714-1.50003,1.50003v4.16415c0,3.73543,3.03912,6.77407,6.77455,6.77407s6.77455-3.03864,6.77455-6.77407V7.91878C22.77455,7.09015,22.10315,6.41875,21.27452,6.41875z"/></svg>