<svg xmlns="http://www.w3.org/2000/svg" viewBox="0 0 40 40"><path d="M36.9 22.8c-.5 0-1 .4-1 1v12.1c0 1.2-1 2.2-2.2 2.2h-7.1v-7.4a6.7 6.7 0 00-13.4 0V38H6.1c-1.2 0-2.2-1-2.2-2.2v-12c0-.6-.5-1-1-1s-1 .4-1 1v12.1c0 2.3 1.9 4.2 4.2 4.2h27.7c2.3 0 4.2-1.9 4.2-4.2V23.8c-.1-.6-.6-1-1.1-1zM24.6 38h-9.4v-7.4c0-2.6 2.1-4.7 4.7-4.7s4.7 2.1 4.7 4.7V38zM38.9 15.1l-6.5-7V4.9c0-2.7-2.2-4.9-4.9-4.9H12.3C9.6 0 7.4 2.2 7.4 4.9v3.2l-6.5 7c-.9 1-1.2 2.4-.6 3.6.5 1.2 1.7 2 3.1 2h33.2c1.4 0 2.5-.8 3.1-2 .4-1.2.1-2.6-.8-3.6zM9.4 4.9c0-1.6 1.3-2.9 2.9-2.9h15.2c1.6 0 2.9 1.3 2.9 2.9V7h-21V4.9zm28.3 13c-.2.5-.7.8-1.2.8H3.3c-.6 0-1-.3-1.2-.8-.2-.5-.1-1.1.3-1.4l7-7.5h21.1l7 7.5c.3.4.4.9.2 1.4z"/><path d="M21.6 36c-.6 0-1-.4-1-1v-3.1c0-.6.4-1 1-1s1 .4 1 1V35c0 .6-.5 1-1 1z"/></svg>